/* XPM */
static char *bitcoin64[] = {
/* columns rows colors chars-per-pixel */
"64 64 2 1 ",
"  c None",
". c #0EB8D9",
/* pixels */
"                                                                ",
"                                                                ",
"                                                                ",
"                                                                ",
"                                                                ",
"                                                                ",
"                                                                ",
"                                                                ",
"                        ....                                    ",
"                     ....                                       ",
"                  ....                                          ",
"                ....               ......                       ",
"               ...           .................                  ",
"             ...          .......................               ",
"            ...        ............................             ",
"           ..        ...............................            ",
"          ..       ...................................          ",
"         ..       .....................................         ",
"        ..      .......................     ............        ",
"       ..      ..................                ........       ",
"      ..      ...............                       ......      ",
"      .      ..............                          ......     ",
"     .      ............                ...            .....    ",
"    .      ...........                   .......        ....    ",
"          ..........                      ........       ....   ",
"         ..........                         ........      ....  ",
"        .........                            ........      ...  ",
"       .........                              ........     .... ",
"       .......                                 ........     ... ",
"      .......                                   ........     .. ",
"     ......                                      .......     ...",
"     .....                                       ........     ..",
"    .....                                         .......     ..",
"   .....                                          ........    ..",
"   ...                                             .......     .",
"  ...                                              .......     .",
"  ..                                                .......    .",
" ..                                                 .......    .",
" .                                                   ......     ",
"                                                     ......     ",
"                                                     ......     ",
"                                                     ......     ",
"                                                      .....     ",
"                                                      .....     ",
"                                                      .....     ",
"                                                      .....     ",
"                                                      .....     ",
"                                                      ....      ",
"                                                       ...      ",
"                                                       ...      ",
"                                                       ...      ",
"                                                       ..       ",
"                                                       ..       ",
"                                                       ..       ",
"                                                       .        ",
"                                                                ",
"                                                                ",
"                                                                ",
"                                                                ",
"                                                                ",
"                                                                ",
"                                                                ",
"                                                                ",
"                                                                "
};
