/* XPM */
static char *bitcoin16[] = {
/* columns rows colors chars-per-pixel */
"16 16 2 1 ",
"  c None",
". c #0EB8D9",
/* pixels */
"                ",
"                ",
"                ",
"      ......    ",
"    ..........  ",
"   ...       .. ",
"  ..       ..  .",
" ..         .. .",
" .           .  ",
"             .. ",
"             .. ",
"              . ",
"                ",
"                ",
"                ",
"                "
};
