/* XPM */
static char *bitcoin32[] = {
/* columns rows colors chars-per-pixel */
"32 32 2 1 ",
"  c None",
". c #0EB8D9",
/* pixels */
"                                ",
"                                ",
"                                ",
"                                ",
"           ..                   ",
"         ..                     ",
"       ..     ..........        ",
"      .    ...............      ",
"     .   ..................     ",
"    .   ..........      ....    ",
"       .......            ...   ",
"      ......        ...     ..  ",
"     .....           ....    .. ",
"    ....               ....   . ",
"   ....                 ....  ..",
"  ...                   ....   .",
"  ..                     ....  .",
" ..                       ...  .",
" .                        ...   ",
"                          ...   ",
"                           ...  ",
"                           ...  ",
"                           ..   ",
"                           ..   ",
"                           ..   ",
"                           ..   ",
"                           .    ",
"                                ",
"                                ",
"                                ",
"                                ",
"                                "
};
